<svg xmlns="http://www.w3.org/2000/svg" width="90" height="90" viewBox="0 0 90 90"><g transform="translate(0)"><path d="M45,90A45,45,0,1,0,0,45,45.052,45.052,0,0,0,45,90ZM45,5.625A39.375,39.375,0,1,1,5.625,45,39.423,39.423,0,0,1,45,5.625Z" fill="#111214"/><path d="M38.59,10.766A33.58,33.58,0,0,0,17.057,3a33.981,33.981,0,0,0-6.9.709A160.185,160.185,0,0,1,21.25,21.817,79.652,79.652,0,0,0,38.59,10.766Z" transform="translate(27.943 8.25)" fill="#111214"/><path d="M17.891,27.59a62.8,62.8,0,0,1,22.95-.4,33.556,33.556,0,0,0-8.156-21.06A85.62,85.62,0,0,1,13.766,18.211q2.216,4.624,4.125,9.379Z" transform="translate(37.856 16.855)" fill="#111214"/><path d="M35.038,22.159A154.178,154.178,0,0,0,23.552,3.649,33.775,33.775,0,0,0,3.238,27.356a79.642,79.642,0,0,0,31.8-5.2Z" transform="translate(8.904 10.035)" fill="#111214"/><path d="M42.015,18.5q-1.761-4.337-3.8-8.554A84.706,84.706,0,0,1,7.481,15.809c-1.455,0-2.917-.09-4.38-.169-.037.668-.1,1.335-.1,2.014A33.609,33.609,0,0,0,10.954,39.4,63.262,63.262,0,0,1,42.015,18.5Z" transform="translate(8.25 27.346)" fill="#111214"/><path d="M15.417,13.988A159.929,159.929,0,0,1,21.747,37,33.7,33.7,0,0,0,35.993,13.894,57.38,57.38,0,0,0,15.417,13.988Z" transform="translate(42.397 35.779)" fill="#111214"/><path d="M6.185,33.285a33.6,33.6,0,0,0,35.794,4.946,152.589,152.589,0,0,0-6.7-24.611A57.59,57.59,0,0,0,6.185,33.285Z" transform="translate(17.009 37.455)" fill="#111214"/></g></svg>