<svg xmlns="http://www.w3.org/2000/svg" width="115.18" height="72" viewBox="0 0 115.18 72"><g transform="translate(0)"><path d="M59.342,54.646c0-8.87-4.219-15.427-12.936-17.885,6.36-3.029,9.677-7.618,9.677-14.755C56.083,7.932,45.562,4.5,33.422,4.5H0V75.161H34.358c12.883,0,24.984-6.158,24.984-20.515ZM15.581,16.562H30.2c5.621,0,10.68,1.574,10.68,8.074,0,6-3.936,8.414-9.5,8.414h-15.8Zm0,46.6V43.7H32.558c6.859,0,11.2,2.851,11.2,10.09,0,7.138-5.179,9.37-11.52,9.37Z" transform="translate(0 -4.5)" fill="#111214"/><path d="M39.59,62.2C51.849,62.2,59.788,56.7,63.609,45H51.167c-1.339,4.368-6.859,6.677-11.141,6.677-8.261,0-12.6-4.824-12.6-13.022H64.449C65.62,22.244,56.481,8.262,39.585,8.262c-15.643,0-26.261,11.722-26.261,27.077C13.324,51.275,23.385,62.2,39.59,62.2ZM39.148,18.88c7.08,0,10.642,4.147,11.237,10.93H27.446c.466-6.725,4.944-10.93,11.7-10.93Z" transform="translate(50.631 9.796)" fill="#111214"/><path d="M15.667,5.273H44.409v6.96H15.667Z" transform="translate(59.535 -1.563)" fill="#111214"/></g></svg>