<svg xmlns="http://www.w3.org/2000/svg" width="93.912" height="90" viewBox="0 0 93.912 90"><path d="M46.956.5C21.013.5,0,21.161,0,46.642A46.219,46.219,0,0,0,32.106,90.42c2.348.434,3.209-.994,3.209-2.219,0-1.1-.039-4-.059-7.846-13.062,2.782-15.816-6.19-15.816-6.19-2.136-5.326-5.224-6.75-5.224-6.75-4.253-2.86.329-2.8.329-2.8,4.715.321,7.192,4.754,7.192,4.754,4.187,7.055,10.992,5.016,13.676,3.839a9.77,9.77,0,0,1,2.974-6.171C27.958,65.882,17,61.914,17,44.235a17.629,17.629,0,0,1,4.833-12.381c-.528-1.166-2.113-5.858.411-12.212,0,0,3.933-1.237,12.913,4.731a45.021,45.021,0,0,1,23.478,0c8.922-5.967,12.854-4.731,12.854-4.731,2.524,6.355.939,11.046.47,12.212a17.7,17.7,0,0,1,4.813,12.381c0,17.726-10.976,21.627-21.424,22.762,1.643,1.385,3.17,4.214,3.17,8.538,0,6.175-.059,11.136-.059,12.635,0,1.209.822,2.653,3.228,2.191a46.079,46.079,0,0,0,32.227-43.72C93.912,21.161,72.887.5,46.956.5Z" transform="translate(0 -0.5)" fill="#111214"/></svg>