<svg xmlns="http://www.w3.org/2000/svg" xmlns:xlink="http://www.w3.org/1999/xlink" width="681" height="1799" viewBox="0 0 681 1799"><defs><clipPath id="a"><rect width="681" height="1799" fill="none"/></clipPath></defs><g opacity="0.6" clip-path="url(#a)"><g transform="translate(-2588 -361)"><g transform="translate(2588 361)" fill="none"><path d="M469.621,20.884a100,100,0,0,1,86.757,0L881,177.171a100,100,0,0,1,54.113,67.844l80.165,351.129a100,100,0,0,1-19.317,84.617l-224.63,281.6A100,100,0,0,1,693.157,1000H332.843a100,100,0,0,1-78.175-37.64l-224.63-281.6a100,100,0,0,1-19.317-84.617L90.886,245.015A100,100,0,0,1,145,177.171Z" stroke="none"/><path d="M 512.9998779296875 16.98583984375 C 498.9674682617188 16.98583984375 484.8673095703125 20.20330810546875 472.2239990234375 26.2904052734375 L 147.6017456054688 182.5772094726563 C 121.6793212890625 195.0573120117188 103.1393432617188 218.3017578125 96.7357177734375 246.3502807617188 L 16.5709228515625 597.478515625 C 10.1661376953125 625.5324096679688 16.784423828125 654.5237426757813 34.7286376953125 677.0189208984375 L 259.3585205078125 958.6178588867188 C 277.2952270507813 981.103759765625 304.0790405273438 994 332.8426513671875 993.9998779296875 L 693.1573486328125 994 C 721.9208984375 993.9998779296875 748.704833984375 981.1035766601563 766.6414794921875 958.6178588867188 L 991.2711791992188 677.018798828125 C 1009.215576171875 654.5235595703125 1015.833862304688 625.5322265625 1009.428955078125 597.478515625 L 929.2639770507813 246.3499755859375 C 922.8604125976563 218.3014526367188 904.3203735351563 195.0571899414063 878.3980102539063 182.5770874023438 L 553.77587890625 26.2904052734375 C 541.1323852539063 20.20330810546875 527.0322265625 16.98583984375 512.9998779296875 16.98583984375 M 512.9999389648438 10.98583984375 C 527.8359375 10.98583984375 542.6719360351563 14.28533935546875 556.3785400390625 20.88427734375 L 881.0006713867188 177.1709594726563 C 908.4222412109375 190.372802734375 928.3394775390625 215.34375 935.1134643554688 245.0145263671875 L 1015.278381347656 596.14306640625 C 1022.053588867188 625.8186645507813 1014.943481445313 656.9646606445313 995.9617309570313 680.7603759765625 L 771.33203125 962.3594970703125 C 752.357421875 986.146240234375 723.5850830078125 999.9998779296875 693.1573486328125 1000 L 332.8426513671875 999.9998779296875 C 302.4149169921875 1000 273.6425170898438 986.1464233398438 254.6680297851563 962.3594970703125 L 30.03814697265625 680.760498046875 C 11.056396484375 656.9646606445313 3.9464111328125 625.8189697265625 10.72149658203125 596.14306640625 L 90.88629150390625 245.0147705078125 C 97.6602783203125 215.343994140625 117.5774536132813 190.3729248046875 144.9990844726563 177.1710815429688 L 469.621337890625 20.88427734375 C 483.3279418945313 14.28533935546875 498.1639404296875 10.98583984375 512.9999389648438 10.98583984375 Z" stroke="none" fill="#bcdbd6"/></g></g><g transform="translate(-2588 -240)"><g transform="translate(2588 361)" fill="none"><path d="M469.621,20.884a100,100,0,0,1,86.757,0L881,177.171a100,100,0,0,1,54.113,67.844l80.165,351.129a100,100,0,0,1-19.317,84.617l-224.63,281.6A100,100,0,0,1,693.157,1000H332.843a100,100,0,0,1-78.175-37.64l-224.63-281.6a100,100,0,0,1-19.317-84.617L90.886,245.015A100,100,0,0,1,145,177.171Z" stroke="none"/><path d="M 512.9998779296875 16.98583984375 C 498.9674682617188 16.98583984375 484.8673095703125 20.20330810546875 472.2239990234375 26.2904052734375 L 147.6017456054688 182.5772094726563 C 121.6793212890625 195.0573120117188 103.1393432617188 218.3017578125 96.7357177734375 246.3502807617188 L 16.5709228515625 597.478515625 C 10.1661376953125 625.5324096679688 16.784423828125 654.5237426757813 34.7286376953125 677.0189208984375 L 259.3585205078125 958.6178588867188 C 277.2952270507813 981.103759765625 304.0790405273438 994 332.8426513671875 993.9998779296875 L 693.1573486328125 994 C 721.9208984375 993.9998779296875 748.704833984375 981.1035766601563 766.6414794921875 958.6178588867188 L 991.2711791992188 677.018798828125 C 1009.215576171875 654.5235595703125 1015.833862304688 625.5322265625 1009.428955078125 597.478515625 L 929.2639770507813 246.3499755859375 C 922.8604125976563 218.3014526367188 904.3203735351563 195.0571899414063 878.3980102539063 182.5770874023438 L 553.77587890625 26.2904052734375 C 541.1323852539063 20.20330810546875 527.0322265625 16.98583984375 512.9998779296875 16.98583984375 M 512.9999389648438 10.98583984375 C 527.8359375 10.98583984375 542.6719360351563 14.28533935546875 556.3785400390625 20.88427734375 L 881.0006713867188 177.1709594726563 C 908.4222412109375 190.372802734375 928.3394775390625 215.34375 935.1134643554688 245.0145263671875 L 1015.278381347656 596.14306640625 C 1022.053588867188 625.8186645507813 1014.943481445313 656.9646606445313 995.9617309570313 680.7603759765625 L 771.33203125 962.3594970703125 C 752.357421875 986.146240234375 723.5850830078125 999.9998779296875 693.1573486328125 1000 L 332.8426513671875 999.9998779296875 C 302.4149169921875 1000 273.6425170898438 986.1464233398438 254.6680297851563 962.3594970703125 L 30.03814697265625 680.760498046875 C 11.056396484375 656.9646606445313 3.9464111328125 625.8189697265625 10.72149658203125 596.14306640625 L 90.88629150390625 245.0147705078125 C 97.6602783203125 215.343994140625 117.5774536132813 190.3729248046875 144.9990844726563 177.1710815429688 L 469.621337890625 20.88427734375 C 483.3279418945313 14.28533935546875 498.1639404296875 10.98583984375 512.9999389648438 10.98583984375 Z" stroke="none" fill="#bcdbd6"/></g></g><g transform="translate(-2588 -119)"><g transform="translate(2588 361)" fill="none"><path d="M469.621,20.884a100,100,0,0,1,86.757,0L881,177.171a100,100,0,0,1,54.113,67.844l80.165,351.129a100,100,0,0,1-19.317,84.617l-224.63,281.6A100,100,0,0,1,693.157,1000H332.843a100,100,0,0,1-78.175-37.64l-224.63-281.6a100,100,0,0,1-19.317-84.617L90.886,245.015A100,100,0,0,1,145,177.171Z" stroke="none"/><path d="M 512.9998779296875 16.98583984375 C 498.9674682617188 16.98583984375 484.8673095703125 20.20330810546875 472.2239990234375 26.2904052734375 L 147.6017456054688 182.5772094726563 C 121.6793212890625 195.0573120117188 103.1393432617188 218.3017578125 96.7357177734375 246.3502807617188 L 16.5709228515625 597.478515625 C 10.1661376953125 625.5324096679688 16.784423828125 654.5237426757813 34.7286376953125 677.0189208984375 L 259.3585205078125 958.6178588867188 C 277.2952270507813 981.103759765625 304.0790405273438 994 332.8426513671875 993.9998779296875 L 693.1573486328125 994 C 721.9208984375 993.9998779296875 748.704833984375 981.1035766601563 766.6414794921875 958.6178588867188 L 991.2711791992188 677.018798828125 C 1009.215576171875 654.5235595703125 1015.833862304688 625.5322265625 1009.428955078125 597.478515625 L 929.2639770507813 246.3499755859375 C 922.8604125976563 218.3014526367188 904.3203735351563 195.0571899414063 878.3980102539063 182.5770874023438 L 553.77587890625 26.2904052734375 C 541.1323852539063 20.20330810546875 527.0322265625 16.98583984375 512.9998779296875 16.98583984375 M 512.9999389648438 10.98583984375 C 527.8359375 10.98583984375 542.6719360351563 14.28533935546875 556.3785400390625 20.88427734375 L 881.0006713867188 177.1709594726563 C 908.4222412109375 190.372802734375 928.3394775390625 215.34375 935.1134643554688 245.0145263671875 L 1015.278381347656 596.14306640625 C 1022.053588867188 625.8186645507813 1014.943481445313 656.9646606445313 995.9617309570313 680.7603759765625 L 771.33203125 962.3594970703125 C 752.357421875 986.146240234375 723.5850830078125 999.9998779296875 693.1573486328125 1000 L 332.8426513671875 999.9998779296875 C 302.4149169921875 1000 273.6425170898438 986.1464233398438 254.6680297851563 962.3594970703125 L 30.03814697265625 680.760498046875 C 11.056396484375 656.9646606445313 3.9464111328125 625.8189697265625 10.72149658203125 596.14306640625 L 90.88629150390625 245.0147705078125 C 97.6602783203125 215.343994140625 117.5774536132813 190.3729248046875 144.9990844726563 177.1710815429688 L 469.621337890625 20.88427734375 C 483.3279418945313 14.28533935546875 498.1639404296875 10.98583984375 512.9999389648438 10.98583984375 Z" stroke="none" fill="#bcdbd6"/></g></g><g transform="translate(-2588 2)"><g transform="translate(2588 361)" fill="none"><path d="M469.621,20.884a100,100,0,0,1,86.757,0L881,177.171a100,100,0,0,1,54.113,67.844l80.165,351.129a100,100,0,0,1-19.317,84.617l-224.63,281.6A100,100,0,0,1,693.157,1000H332.843a100,100,0,0,1-78.175-37.64l-224.63-281.6a100,100,0,0,1-19.317-84.617L90.886,245.015A100,100,0,0,1,145,177.171Z" stroke="none"/><path d="M 512.9998779296875 16.98583984375 C 498.9674682617188 16.98583984375 484.8673095703125 20.20330810546875 472.2239990234375 26.2904052734375 L 147.6017456054688 182.5772094726563 C 121.6793212890625 195.0573120117188 103.1393432617188 218.3017578125 96.7357177734375 246.3502807617188 L 16.5709228515625 597.478515625 C 10.1661376953125 625.5324096679688 16.784423828125 654.5237426757813 34.7286376953125 677.0189208984375 L 259.3585205078125 958.6178588867188 C 277.2952270507813 981.103759765625 304.0790405273438 994 332.8426513671875 993.9998779296875 L 693.1573486328125 994 C 721.9208984375 993.9998779296875 748.704833984375 981.1035766601563 766.6414794921875 958.6178588867188 L 991.2711791992188 677.018798828125 C 1009.215576171875 654.5235595703125 1015.833862304688 625.5322265625 1009.428955078125 597.478515625 L 929.2639770507813 246.3499755859375 C 922.8604125976563 218.3014526367188 904.3203735351563 195.0571899414063 878.3980102539063 182.5770874023438 L 553.77587890625 26.2904052734375 C 541.1323852539063 20.20330810546875 527.0322265625 16.98583984375 512.9998779296875 16.98583984375 M 512.9999389648438 10.98583984375 C 527.8359375 10.98583984375 542.6719360351563 14.28533935546875 556.3785400390625 20.88427734375 L 881.0006713867188 177.1709594726563 C 908.4222412109375 190.372802734375 928.3394775390625 215.34375 935.1134643554688 245.0145263671875 L 1015.278381347656 596.14306640625 C 1022.053588867188 625.8186645507813 1014.943481445313 656.9646606445313 995.9617309570313 680.7603759765625 L 771.33203125 962.3594970703125 C 752.357421875 986.146240234375 723.5850830078125 999.9998779296875 693.1573486328125 1000 L 332.8426513671875 999.9998779296875 C 302.4149169921875 1000 273.6425170898438 986.1464233398438 254.6680297851563 962.3594970703125 L 30.03814697265625 680.760498046875 C 11.056396484375 656.9646606445313 3.9464111328125 625.8189697265625 10.72149658203125 596.14306640625 L 90.88629150390625 245.0147705078125 C 97.6602783203125 215.343994140625 117.5774536132813 190.3729248046875 144.9990844726563 177.1710815429688 L 469.621337890625 20.88427734375 C 483.3279418945313 14.28533935546875 498.1639404296875 10.98583984375 512.9999389648438 10.98583984375 Z" stroke="none" fill="#bcdbd6"/></g></g><g transform="translate(-2588 123)"><g transform="translate(2588 361)" fill="none"><path d="M469.621,20.884a100,100,0,0,1,86.757,0L881,177.171a100,100,0,0,1,54.113,67.844l80.165,351.129a100,100,0,0,1-19.317,84.617l-224.63,281.6A100,100,0,0,1,693.157,1000H332.843a100,100,0,0,1-78.175-37.64l-224.63-281.6a100,100,0,0,1-19.317-84.617L90.886,245.015A100,100,0,0,1,145,177.171Z" stroke="none"/><path d="M 512.9998779296875 16.98583984375 C 498.9674682617188 16.98583984375 484.8673095703125 20.20330810546875 472.2239990234375 26.2904052734375 L 147.6017456054688 182.5772094726563 C 121.6793212890625 195.0573120117188 103.1393432617188 218.3017578125 96.7357177734375 246.3502807617188 L 16.5709228515625 597.478515625 C 10.1661376953125 625.5324096679688 16.784423828125 654.5237426757813 34.7286376953125 677.0189208984375 L 259.3585205078125 958.6178588867188 C 277.2952270507813 981.103759765625 304.0790405273438 994 332.8426513671875 993.9998779296875 L 693.1573486328125 994 C 721.9208984375 993.9998779296875 748.704833984375 981.1035766601563 766.6414794921875 958.6178588867188 L 991.2711791992188 677.018798828125 C 1009.215576171875 654.5235595703125 1015.833862304688 625.5322265625 1009.428955078125 597.478515625 L 929.2639770507813 246.3499755859375 C 922.8604125976563 218.3014526367188 904.3203735351563 195.0571899414063 878.3980102539063 182.5770874023438 L 553.77587890625 26.2904052734375 C 541.1323852539063 20.20330810546875 527.0322265625 16.98583984375 512.9998779296875 16.98583984375 M 512.9999389648438 10.98583984375 C 527.8359375 10.98583984375 542.6719360351563 14.28533935546875 556.3785400390625 20.88427734375 L 881.0006713867188 177.1709594726563 C 908.4222412109375 190.372802734375 928.3394775390625 215.34375 935.1134643554688 245.0145263671875 L 1015.278381347656 596.14306640625 C 1022.053588867188 625.8186645507813 1014.943481445313 656.9646606445313 995.9617309570313 680.7603759765625 L 771.33203125 962.3594970703125 C 752.357421875 986.146240234375 723.5850830078125 999.9998779296875 693.1573486328125 1000 L 332.8426513671875 999.9998779296875 C 302.4149169921875 1000 273.6425170898438 986.1464233398438 254.6680297851563 962.3594970703125 L 30.03814697265625 680.760498046875 C 11.056396484375 656.9646606445313 3.9464111328125 625.8189697265625 10.72149658203125 596.14306640625 L 90.88629150390625 245.0147705078125 C 97.6602783203125 215.343994140625 117.5774536132813 190.3729248046875 144.9990844726563 177.1710815429688 L 469.621337890625 20.88427734375 C 483.3279418945313 14.28533935546875 498.1639404296875 10.98583984375 512.9999389648438 10.98583984375 Z" stroke="none" fill="#bcdbd6"/></g></g><g transform="translate(-2588 244)"><g transform="translate(2588 361)" fill="none"><path d="M469.621,20.884a100,100,0,0,1,86.757,0L881,177.171a100,100,0,0,1,54.113,67.844l80.165,351.129a100,100,0,0,1-19.317,84.617l-224.63,281.6A100,100,0,0,1,693.157,1000H332.843a100,100,0,0,1-78.175-37.64l-224.63-281.6a100,100,0,0,1-19.317-84.617L90.886,245.015A100,100,0,0,1,145,177.171Z" stroke="none"/><path d="M 512.9998779296875 16.98583984375 C 498.9674682617188 16.98583984375 484.8673095703125 20.20330810546875 472.2239990234375 26.2904052734375 L 147.6017456054688 182.5772094726563 C 121.6793212890625 195.0573120117188 103.1393432617188 218.3017578125 96.7357177734375 246.3502807617188 L 16.5709228515625 597.478515625 C 10.1661376953125 625.5324096679688 16.784423828125 654.5237426757813 34.7286376953125 677.0189208984375 L 259.3585205078125 958.6178588867188 C 277.2952270507813 981.103759765625 304.0790405273438 994 332.8426513671875 993.9998779296875 L 693.1573486328125 994 C 721.9208984375 993.9998779296875 748.704833984375 981.1035766601563 766.6414794921875 958.6178588867188 L 991.2711791992188 677.018798828125 C 1009.215576171875 654.5235595703125 1015.833862304688 625.5322265625 1009.428955078125 597.478515625 L 929.2639770507813 246.3499755859375 C 922.8604125976563 218.3014526367188 904.3203735351563 195.0571899414063 878.3980102539063 182.5770874023438 L 553.77587890625 26.2904052734375 C 541.1323852539063 20.20330810546875 527.0322265625 16.98583984375 512.9998779296875 16.98583984375 M 512.9999389648438 10.98583984375 C 527.8359375 10.98583984375 542.6719360351563 14.28533935546875 556.3785400390625 20.88427734375 L 881.0006713867188 177.1709594726563 C 908.4222412109375 190.372802734375 928.3394775390625 215.34375 935.1134643554688 245.0145263671875 L 1015.278381347656 596.14306640625 C 1022.053588867188 625.8186645507813 1014.943481445313 656.9646606445313 995.9617309570313 680.7603759765625 L 771.33203125 962.3594970703125 C 752.357421875 986.146240234375 723.5850830078125 999.9998779296875 693.1573486328125 1000 L 332.8426513671875 999.9998779296875 C 302.4149169921875 1000 273.6425170898438 986.1464233398438 254.6680297851563 962.3594970703125 L 30.03814697265625 680.760498046875 C 11.056396484375 656.9646606445313 3.9464111328125 625.8189697265625 10.72149658203125 596.14306640625 L 90.88629150390625 245.0147705078125 C 97.6602783203125 215.343994140625 117.5774536132813 190.3729248046875 144.9990844726563 177.1710815429688 L 469.621337890625 20.88427734375 C 483.3279418945313 14.28533935546875 498.1639404296875 10.98583984375 512.9999389648438 10.98583984375 Z" stroke="none" fill="#bcdbd6"/></g></g><g transform="translate(-2588 365)"><g transform="translate(2588 361)" fill="none"><path d="M469.621,20.884a100,100,0,0,1,86.757,0L881,177.171a100,100,0,0,1,54.113,67.844l80.165,351.129a100,100,0,0,1-19.317,84.617l-224.63,281.6A100,100,0,0,1,693.157,1000H332.843a100,100,0,0,1-78.175-37.64l-224.63-281.6a100,100,0,0,1-19.317-84.617L90.886,245.015A100,100,0,0,1,145,177.171Z" stroke="none"/><path d="M 512.9998779296875 16.98583984375 C 498.9674682617188 16.98583984375 484.8673095703125 20.20330810546875 472.2239990234375 26.2904052734375 L 147.6017456054688 182.5772094726563 C 121.6793212890625 195.0573120117188 103.1393432617188 218.3017578125 96.7357177734375 246.3502807617188 L 16.5709228515625 597.478515625 C 10.1661376953125 625.5324096679688 16.784423828125 654.5237426757813 34.7286376953125 677.0189208984375 L 259.3585205078125 958.6178588867188 C 277.2952270507813 981.103759765625 304.0790405273438 994 332.8426513671875 993.9998779296875 L 693.1573486328125 994 C 721.9208984375 993.9998779296875 748.704833984375 981.1035766601563 766.6414794921875 958.6178588867188 L 991.2711791992188 677.018798828125 C 1009.215576171875 654.5235595703125 1015.833862304688 625.5322265625 1009.428955078125 597.478515625 L 929.2639770507813 246.3499755859375 C 922.8604125976563 218.3014526367188 904.3203735351563 195.0571899414063 878.3980102539063 182.5770874023438 L 553.77587890625 26.2904052734375 C 541.1323852539063 20.20330810546875 527.0322265625 16.98583984375 512.9998779296875 16.98583984375 M 512.9999389648438 10.98583984375 C 527.8359375 10.98583984375 542.6719360351563 14.28533935546875 556.3785400390625 20.88427734375 L 881.0006713867188 177.1709594726563 C 908.4222412109375 190.372802734375 928.3394775390625 215.34375 935.1134643554688 245.0145263671875 L 1015.278381347656 596.14306640625 C 1022.053588867188 625.8186645507813 1014.943481445313 656.9646606445313 995.9617309570313 680.7603759765625 L 771.33203125 962.3594970703125 C 752.357421875 986.146240234375 723.5850830078125 999.9998779296875 693.1573486328125 1000 L 332.8426513671875 999.9998779296875 C 302.4149169921875 1000 273.6425170898438 986.1464233398438 254.6680297851563 962.3594970703125 L 30.03814697265625 680.760498046875 C 11.056396484375 656.9646606445313 3.9464111328125 625.8189697265625 10.72149658203125 596.14306640625 L 90.88629150390625 245.0147705078125 C 97.6602783203125 215.343994140625 117.5774536132813 190.3729248046875 144.9990844726563 177.1710815429688 L 469.621337890625 20.88427734375 C 483.3279418945313 14.28533935546875 498.1639404296875 10.98583984375 512.9999389648438 10.98583984375 Z" stroke="none" fill="#bcdbd6"/></g></g><g transform="translate(-2588 486)"><g transform="translate(2588 361)" fill="none"><path d="M469.621,20.884a100,100,0,0,1,86.757,0L881,177.171a100,100,0,0,1,54.113,67.844l80.165,351.129a100,100,0,0,1-19.317,84.617l-224.63,281.6A100,100,0,0,1,693.157,1000H332.843a100,100,0,0,1-78.175-37.64l-224.63-281.6a100,100,0,0,1-19.317-84.617L90.886,245.015A100,100,0,0,1,145,177.171Z" stroke="none"/><path d="M 512.9998779296875 16.98583984375 C 498.9674682617188 16.98583984375 484.8673095703125 20.20330810546875 472.2239990234375 26.2904052734375 L 147.6017456054688 182.5772094726563 C 121.6793212890625 195.0573120117188 103.1393432617188 218.3017578125 96.7357177734375 246.3502807617188 L 16.5709228515625 597.478515625 C 10.1661376953125 625.5324096679688 16.784423828125 654.5237426757813 34.7286376953125 677.0189208984375 L 259.3585205078125 958.6178588867188 C 277.2952270507813 981.103759765625 304.0790405273438 994 332.8426513671875 993.9998779296875 L 693.1573486328125 994 C 721.9208984375 993.9998779296875 748.704833984375 981.1035766601563 766.6414794921875 958.6178588867188 L 991.2711791992188 677.018798828125 C 1009.215576171875 654.5235595703125 1015.833862304688 625.5322265625 1009.428955078125 597.478515625 L 929.2639770507813 246.3499755859375 C 922.8604125976563 218.3014526367188 904.3203735351563 195.0571899414063 878.3980102539063 182.5770874023438 L 553.77587890625 26.2904052734375 C 541.1323852539063 20.20330810546875 527.0322265625 16.98583984375 512.9998779296875 16.98583984375 M 512.9999389648438 10.98583984375 C 527.8359375 10.98583984375 542.6719360351563 14.28533935546875 556.3785400390625 20.88427734375 L 881.0006713867188 177.1709594726563 C 908.4222412109375 190.372802734375 928.3394775390625 215.34375 935.1134643554688 245.0145263671875 L 1015.278381347656 596.14306640625 C 1022.053588867188 625.8186645507813 1014.943481445313 656.9646606445313 995.9617309570313 680.7603759765625 L 771.33203125 962.3594970703125 C 752.357421875 986.146240234375 723.5850830078125 999.9998779296875 693.1573486328125 1000 L 332.8426513671875 999.9998779296875 C 302.4149169921875 1000 273.6425170898438 986.1464233398438 254.6680297851563 962.3594970703125 L 30.03814697265625 680.760498046875 C 11.056396484375 656.9646606445313 3.9464111328125 625.8189697265625 10.72149658203125 596.14306640625 L 90.88629150390625 245.0147705078125 C 97.6602783203125 215.343994140625 117.5774536132813 190.3729248046875 144.9990844726563 177.1710815429688 L 469.621337890625 20.88427734375 C 483.3279418945313 14.28533935546875 498.1639404296875 10.98583984375 512.9999389648438 10.98583984375 Z" stroke="none" fill="#bcdbd6"/></g></g><g transform="translate(-2588 607)"><g transform="translate(2588 361)" fill="none"><path d="M469.621,20.884a100,100,0,0,1,86.757,0L881,177.171a100,100,0,0,1,54.113,67.844l80.165,351.129a100,100,0,0,1-19.317,84.617l-224.63,281.6A100,100,0,0,1,693.157,1000H332.843a100,100,0,0,1-78.175-37.64l-224.63-281.6a100,100,0,0,1-19.317-84.617L90.886,245.015A100,100,0,0,1,145,177.171Z" stroke="none"/><path d="M 512.9998779296875 16.98583984375 C 498.9674682617188 16.98583984375 484.8673095703125 20.20330810546875 472.2239990234375 26.2904052734375 L 147.6017456054688 182.5772094726563 C 121.6793212890625 195.0573120117188 103.1393432617188 218.3017578125 96.7357177734375 246.3502807617188 L 16.5709228515625 597.478515625 C 10.1661376953125 625.5324096679688 16.784423828125 654.5237426757813 34.7286376953125 677.0189208984375 L 259.3585205078125 958.6178588867188 C 277.2952270507813 981.103759765625 304.0790405273438 994 332.8426513671875 993.9998779296875 L 693.1573486328125 994 C 721.9208984375 993.9998779296875 748.704833984375 981.1035766601563 766.6414794921875 958.6178588867188 L 991.2711791992188 677.018798828125 C 1009.215576171875 654.5235595703125 1015.833862304688 625.5322265625 1009.428955078125 597.478515625 L 929.2639770507813 246.3499755859375 C 922.8604125976563 218.3014526367188 904.3203735351563 195.0571899414063 878.3980102539063 182.5770874023438 L 553.77587890625 26.2904052734375 C 541.1323852539063 20.20330810546875 527.0322265625 16.98583984375 512.9998779296875 16.98583984375 M 512.9999389648438 10.98583984375 C 527.8359375 10.98583984375 542.6719360351563 14.28533935546875 556.3785400390625 20.88427734375 L 881.0006713867188 177.1709594726563 C 908.4222412109375 190.372802734375 928.3394775390625 215.34375 935.1134643554688 245.0145263671875 L 1015.278381347656 596.14306640625 C 1022.053588867188 625.8186645507813 1014.943481445313 656.9646606445313 995.9617309570313 680.7603759765625 L 771.33203125 962.3594970703125 C 752.357421875 986.146240234375 723.5850830078125 999.9998779296875 693.1573486328125 1000 L 332.8426513671875 999.9998779296875 C 302.4149169921875 1000 273.6425170898438 986.1464233398438 254.6680297851563 962.3594970703125 L 30.03814697265625 680.760498046875 C 11.056396484375 656.9646606445313 3.9464111328125 625.8189697265625 10.72149658203125 596.14306640625 L 90.88629150390625 245.0147705078125 C 97.6602783203125 215.343994140625 117.5774536132813 190.3729248046875 144.9990844726563 177.1710815429688 L 469.621337890625 20.88427734375 C 483.3279418945313 14.28533935546875 498.1639404296875 10.98583984375 512.9999389648438 10.98583984375 Z" stroke="none" fill="#bcdbd6"/></g></g><g transform="translate(-2588 728)"><g transform="translate(2588 361)" fill="none"><path d="M469.621,20.884a100,100,0,0,1,86.757,0L881,177.171a100,100,0,0,1,54.113,67.844l80.165,351.129a100,100,0,0,1-19.317,84.617l-224.63,281.6A100,100,0,0,1,693.157,1000H332.843a100,100,0,0,1-78.175-37.64l-224.63-281.6a100,100,0,0,1-19.317-84.617L90.886,245.015A100,100,0,0,1,145,177.171Z" stroke="none"/><path d="M 512.9998779296875 16.98583984375 C 498.9674682617188 16.98583984375 484.8673095703125 20.20330810546875 472.2239990234375 26.2904052734375 L 147.6017456054688 182.5772094726563 C 121.6793212890625 195.0573120117188 103.1393432617188 218.3017578125 96.7357177734375 246.3502807617188 L 16.5709228515625 597.478515625 C 10.1661376953125 625.5324096679688 16.784423828125 654.5237426757813 34.7286376953125 677.0189208984375 L 259.3585205078125 958.6178588867188 C 277.2952270507813 981.103759765625 304.0790405273438 994 332.8426513671875 993.9998779296875 L 693.1573486328125 994 C 721.9208984375 993.9998779296875 748.704833984375 981.1035766601563 766.6414794921875 958.6178588867188 L 991.2711791992188 677.018798828125 C 1009.215576171875 654.5235595703125 1015.833862304688 625.5322265625 1009.428955078125 597.478515625 L 929.2639770507813 246.3499755859375 C 922.8604125976563 218.3014526367188 904.3203735351563 195.0571899414063 878.3980102539063 182.5770874023438 L 553.77587890625 26.2904052734375 C 541.1323852539063 20.20330810546875 527.0322265625 16.98583984375 512.9998779296875 16.98583984375 M 512.9999389648438 10.98583984375 C 527.8359375 10.98583984375 542.6719360351563 14.28533935546875 556.3785400390625 20.88427734375 L 881.0006713867188 177.1709594726563 C 908.4222412109375 190.372802734375 928.3394775390625 215.34375 935.1134643554688 245.0145263671875 L 1015.278381347656 596.14306640625 C 1022.053588867188 625.8186645507813 1014.943481445313 656.9646606445313 995.9617309570313 680.7603759765625 L 771.33203125 962.3594970703125 C 752.357421875 986.146240234375 723.5850830078125 999.9998779296875 693.1573486328125 1000 L 332.8426513671875 999.9998779296875 C 302.4149169921875 1000 273.6425170898438 986.1464233398438 254.6680297851563 962.3594970703125 L 30.03814697265625 680.760498046875 C 11.056396484375 656.9646606445313 3.9464111328125 625.8189697265625 10.72149658203125 596.14306640625 L 90.88629150390625 245.0147705078125 C 97.6602783203125 215.343994140625 117.5774536132813 190.3729248046875 144.9990844726563 177.1710815429688 L 469.621337890625 20.88427734375 C 483.3279418945313 14.28533935546875 498.1639404296875 10.98583984375 512.9999389648438 10.98583984375 Z" stroke="none" fill="#bcdbd6"/></g></g><g transform="translate(-2588 849)"><g transform="translate(2588 361)" fill="none"><path d="M469.621,20.884a100,100,0,0,1,86.757,0L881,177.171a100,100,0,0,1,54.113,67.844l80.165,351.129a100,100,0,0,1-19.317,84.617l-224.63,281.6A100,100,0,0,1,693.157,1000H332.843a100,100,0,0,1-78.175-37.64l-224.63-281.6a100,100,0,0,1-19.317-84.617L90.886,245.015A100,100,0,0,1,145,177.171Z" stroke="none"/><path d="M 512.9998779296875 16.98583984375 C 498.9674682617188 16.98583984375 484.8673095703125 20.20330810546875 472.2239990234375 26.2904052734375 L 147.6017456054688 182.5772094726563 C 121.6793212890625 195.0573120117188 103.1393432617188 218.3017578125 96.7357177734375 246.3502807617188 L 16.5709228515625 597.478515625 C 10.1661376953125 625.5324096679688 16.784423828125 654.5237426757813 34.7286376953125 677.0189208984375 L 259.3585205078125 958.6178588867188 C 277.2952270507813 981.103759765625 304.0790405273438 994 332.8426513671875 993.9998779296875 L 693.1573486328125 994 C 721.9208984375 993.9998779296875 748.704833984375 981.1035766601563 766.6414794921875 958.6178588867188 L 991.2711791992188 677.018798828125 C 1009.215576171875 654.5235595703125 1015.833862304688 625.5322265625 1009.428955078125 597.478515625 L 929.2639770507813 246.3499755859375 C 922.8604125976563 218.3014526367188 904.3203735351563 195.0571899414063 878.3980102539063 182.5770874023438 L 553.77587890625 26.2904052734375 C 541.1323852539063 20.20330810546875 527.0322265625 16.98583984375 512.9998779296875 16.98583984375 M 512.9999389648438 10.98583984375 C 527.8359375 10.98583984375 542.6719360351563 14.28533935546875 556.3785400390625 20.88427734375 L 881.0006713867188 177.1709594726563 C 908.4222412109375 190.372802734375 928.3394775390625 215.34375 935.1134643554688 245.0145263671875 L 1015.278381347656 596.14306640625 C 1022.053588867188 625.8186645507813 1014.943481445313 656.9646606445313 995.9617309570313 680.7603759765625 L 771.33203125 962.3594970703125 C 752.357421875 986.146240234375 723.5850830078125 999.9998779296875 693.1573486328125 1000 L 332.8426513671875 999.9998779296875 C 302.4149169921875 1000 273.6425170898438 986.1464233398438 254.6680297851563 962.3594970703125 L 30.03814697265625 680.760498046875 C 11.056396484375 656.9646606445313 3.9464111328125 625.8189697265625 10.72149658203125 596.14306640625 L 90.88629150390625 245.0147705078125 C 97.6602783203125 215.343994140625 117.5774536132813 190.3729248046875 144.9990844726563 177.1710815429688 L 469.621337890625 20.88427734375 C 483.3279418945313 14.28533935546875 498.1639404296875 10.98583984375 512.9999389648438 10.98583984375 Z" stroke="none" fill="#bcdbd6"/></g></g><g transform="translate(-2588 970)"><g transform="translate(2588 361)" fill="none"><path d="M469.621,20.884a100,100,0,0,1,86.757,0L881,177.171a100,100,0,0,1,54.113,67.844l80.165,351.129a100,100,0,0,1-19.317,84.617l-224.63,281.6A100,100,0,0,1,693.157,1000H332.843a100,100,0,0,1-78.175-37.64l-224.63-281.6a100,100,0,0,1-19.317-84.617L90.886,245.015A100,100,0,0,1,145,177.171Z" stroke="none"/><path d="M 512.9998779296875 16.98583984375 C 498.9674682617188 16.98583984375 484.8673095703125 20.20330810546875 472.2239990234375 26.2904052734375 L 147.6017456054688 182.5772094726563 C 121.6793212890625 195.0573120117188 103.1393432617188 218.3017578125 96.7357177734375 246.3502807617188 L 16.5709228515625 597.478515625 C 10.1661376953125 625.5324096679688 16.784423828125 654.5237426757813 34.7286376953125 677.0189208984375 L 259.3585205078125 958.6178588867188 C 277.2952270507813 981.103759765625 304.0790405273438 994 332.8426513671875 993.9998779296875 L 693.1573486328125 994 C 721.9208984375 993.9998779296875 748.704833984375 981.1035766601563 766.6414794921875 958.6178588867188 L 991.2711791992188 677.018798828125 C 1009.215576171875 654.5235595703125 1015.833862304688 625.5322265625 1009.428955078125 597.478515625 L 929.2639770507813 246.3499755859375 C 922.8604125976563 218.3014526367188 904.3203735351563 195.0571899414063 878.3980102539063 182.5770874023438 L 553.77587890625 26.2904052734375 C 541.1323852539063 20.20330810546875 527.0322265625 16.98583984375 512.9998779296875 16.98583984375 M 512.9999389648438 10.98583984375 C 527.8359375 10.98583984375 542.6719360351563 14.28533935546875 556.3785400390625 20.88427734375 L 881.0006713867188 177.1709594726563 C 908.4222412109375 190.372802734375 928.3394775390625 215.34375 935.1134643554688 245.0145263671875 L 1015.278381347656 596.14306640625 C 1022.053588867188 625.8186645507813 1014.943481445313 656.9646606445313 995.9617309570313 680.7603759765625 L 771.33203125 962.3594970703125 C 752.357421875 986.146240234375 723.5850830078125 999.9998779296875 693.1573486328125 1000 L 332.8426513671875 999.9998779296875 C 302.4149169921875 1000 273.6425170898438 986.1464233398438 254.6680297851563 962.3594970703125 L 30.03814697265625 680.760498046875 C 11.056396484375 656.9646606445313 3.9464111328125 625.8189697265625 10.72149658203125 596.14306640625 L 90.88629150390625 245.0147705078125 C 97.6602783203125 215.343994140625 117.5774536132813 190.3729248046875 144.9990844726563 177.1710815429688 L 469.621337890625 20.88427734375 C 483.3279418945313 14.28533935546875 498.1639404296875 10.98583984375 512.9999389648438 10.98583984375 Z" stroke="none" fill="#bcdbd6"/></g></g><g transform="translate(-2588 1091)"><g transform="translate(2588 361)" fill="none"><path d="M469.621,20.884a100,100,0,0,1,86.757,0L881,177.171a100,100,0,0,1,54.113,67.844l80.165,351.129a100,100,0,0,1-19.317,84.617l-224.63,281.6A100,100,0,0,1,693.157,1000H332.843a100,100,0,0,1-78.175-37.64l-224.63-281.6a100,100,0,0,1-19.317-84.617L90.886,245.015A100,100,0,0,1,145,177.171Z" stroke="none"/><path d="M 512.9998779296875 16.98583984375 C 498.9674682617188 16.98583984375 484.8673095703125 20.20330810546875 472.2239990234375 26.2904052734375 L 147.6017456054688 182.5772094726563 C 121.6793212890625 195.0573120117188 103.1393432617188 218.3017578125 96.7357177734375 246.3502807617188 L 16.5709228515625 597.478515625 C 10.1661376953125 625.5324096679688 16.784423828125 654.5237426757813 34.7286376953125 677.0189208984375 L 259.3585205078125 958.6178588867188 C 277.2952270507813 981.103759765625 304.0790405273438 994 332.8426513671875 993.9998779296875 L 693.1573486328125 994 C 721.9208984375 993.9998779296875 748.704833984375 981.1035766601563 766.6414794921875 958.6178588867188 L 991.2711791992188 677.018798828125 C 1009.215576171875 654.5235595703125 1015.833862304688 625.5322265625 1009.428955078125 597.478515625 L 929.2639770507813 246.3499755859375 C 922.8604125976563 218.3014526367188 904.3203735351563 195.0571899414063 878.3980102539063 182.5770874023438 L 553.77587890625 26.2904052734375 C 541.1323852539063 20.20330810546875 527.0322265625 16.98583984375 512.9998779296875 16.98583984375 M 512.9999389648438 10.98583984375 C 527.8359375 10.98583984375 542.6719360351563 14.28533935546875 556.3785400390625 20.88427734375 L 881.0006713867188 177.1709594726563 C 908.4222412109375 190.372802734375 928.3394775390625 215.34375 935.1134643554688 245.0145263671875 L 1015.278381347656 596.14306640625 C 1022.053588867188 625.8186645507813 1014.943481445313 656.9646606445313 995.9617309570313 680.7603759765625 L 771.33203125 962.3594970703125 C 752.357421875 986.146240234375 723.5850830078125 999.9998779296875 693.1573486328125 1000 L 332.8426513671875 999.9998779296875 C 302.4149169921875 1000 273.6425170898438 986.1464233398438 254.6680297851563 962.3594970703125 L 30.03814697265625 680.760498046875 C 11.056396484375 656.9646606445313 3.9464111328125 625.8189697265625 10.72149658203125 596.14306640625 L 90.88629150390625 245.0147705078125 C 97.6602783203125 215.343994140625 117.5774536132813 190.3729248046875 144.9990844726563 177.1710815429688 L 469.621337890625 20.88427734375 C 483.3279418945313 14.28533935546875 498.1639404296875 10.98583984375 512.9999389648438 10.98583984375 Z" stroke="none" fill="#bcdbd6"/></g></g><g transform="translate(-2588 1212)"><g transform="translate(2588 361)" fill="none"><path d="M469.621,20.884a100,100,0,0,1,86.757,0L881,177.171a100,100,0,0,1,54.113,67.844l80.165,351.129a100,100,0,0,1-19.317,84.617l-224.63,281.6A100,100,0,0,1,693.157,1000H332.843a100,100,0,0,1-78.175-37.64l-224.63-281.6a100,100,0,0,1-19.317-84.617L90.886,245.015A100,100,0,0,1,145,177.171Z" stroke="none"/><path d="M 512.9998779296875 16.98583984375 C 498.9674682617188 16.98583984375 484.8673095703125 20.20330810546875 472.2239990234375 26.2904052734375 L 147.6017456054688 182.5772094726563 C 121.6793212890625 195.0573120117188 103.1393432617188 218.3017578125 96.7357177734375 246.3502807617188 L 16.5709228515625 597.478515625 C 10.1661376953125 625.5324096679688 16.784423828125 654.5237426757813 34.7286376953125 677.0189208984375 L 259.3585205078125 958.6178588867188 C 277.2952270507813 981.103759765625 304.0790405273438 994 332.8426513671875 993.9998779296875 L 693.1573486328125 994 C 721.9208984375 993.9998779296875 748.704833984375 981.1035766601563 766.6414794921875 958.6178588867188 L 991.2711791992188 677.018798828125 C 1009.215576171875 654.5235595703125 1015.833862304688 625.5322265625 1009.428955078125 597.478515625 L 929.2639770507813 246.3499755859375 C 922.8604125976563 218.3014526367188 904.3203735351563 195.0571899414063 878.3980102539063 182.5770874023438 L 553.77587890625 26.2904052734375 C 541.1323852539063 20.20330810546875 527.0322265625 16.98583984375 512.9998779296875 16.98583984375 M 512.9999389648438 10.98583984375 C 527.8359375 10.98583984375 542.6719360351563 14.28533935546875 556.3785400390625 20.88427734375 L 881.0006713867188 177.1709594726563 C 908.4222412109375 190.372802734375 928.3394775390625 215.34375 935.1134643554688 245.0145263671875 L 1015.278381347656 596.14306640625 C 1022.053588867188 625.8186645507813 1014.943481445313 656.9646606445313 995.9617309570313 680.7603759765625 L 771.33203125 962.3594970703125 C 752.357421875 986.146240234375 723.5850830078125 999.9998779296875 693.1573486328125 1000 L 332.8426513671875 999.9998779296875 C 302.4149169921875 1000 273.6425170898438 986.1464233398438 254.6680297851563 962.3594970703125 L 30.03814697265625 680.760498046875 C 11.056396484375 656.9646606445313 3.9464111328125 625.8189697265625 10.72149658203125 596.14306640625 L 90.88629150390625 245.0147705078125 C 97.6602783203125 215.343994140625 117.5774536132813 190.3729248046875 144.9990844726563 177.1710815429688 L 469.621337890625 20.88427734375 C 483.3279418945313 14.28533935546875 498.1639404296875 10.98583984375 512.9999389648438 10.98583984375 Z" stroke="none" fill="#bcdbd6"/></g></g><g transform="translate(-2588 1333)"><g transform="translate(2588 361)" fill="none"><path d="M469.621,20.884a100,100,0,0,1,86.757,0L881,177.171a100,100,0,0,1,54.113,67.844l80.165,351.129a100,100,0,0,1-19.317,84.617l-224.63,281.6A100,100,0,0,1,693.157,1000H332.843a100,100,0,0,1-78.175-37.64l-224.63-281.6a100,100,0,0,1-19.317-84.617L90.886,245.015A100,100,0,0,1,145,177.171Z" stroke="none"/><path d="M 512.9998779296875 16.98583984375 C 498.9674682617188 16.98583984375 484.8673095703125 20.20330810546875 472.2239990234375 26.2904052734375 L 147.6017456054688 182.5772094726563 C 121.6793212890625 195.0573120117188 103.1393432617188 218.3017578125 96.7357177734375 246.3502807617188 L 16.5709228515625 597.478515625 C 10.1661376953125 625.5324096679688 16.784423828125 654.5237426757813 34.7286376953125 677.0189208984375 L 259.3585205078125 958.6178588867188 C 277.2952270507813 981.103759765625 304.0790405273438 994 332.8426513671875 993.9998779296875 L 693.1573486328125 994 C 721.9208984375 993.9998779296875 748.704833984375 981.1035766601563 766.6414794921875 958.6178588867188 L 991.2711791992188 677.018798828125 C 1009.215576171875 654.5235595703125 1015.833862304688 625.5322265625 1009.428955078125 597.478515625 L 929.2639770507813 246.3499755859375 C 922.8604125976563 218.3014526367188 904.3203735351563 195.0571899414063 878.3980102539063 182.5770874023438 L 553.77587890625 26.2904052734375 C 541.1323852539063 20.20330810546875 527.0322265625 16.98583984375 512.9998779296875 16.98583984375 M 512.9999389648438 10.98583984375 C 527.8359375 10.98583984375 542.6719360351563 14.28533935546875 556.3785400390625 20.88427734375 L 881.0006713867188 177.1709594726563 C 908.4222412109375 190.372802734375 928.3394775390625 215.34375 935.1134643554688 245.0145263671875 L 1015.278381347656 596.14306640625 C 1022.053588867188 625.8186645507813 1014.943481445313 656.9646606445313 995.9617309570313 680.7603759765625 L 771.33203125 962.3594970703125 C 752.357421875 986.146240234375 723.5850830078125 999.9998779296875 693.1573486328125 1000 L 332.8426513671875 999.9998779296875 C 302.4149169921875 1000 273.6425170898438 986.1464233398438 254.6680297851563 962.3594970703125 L 30.03814697265625 680.760498046875 C 11.056396484375 656.9646606445313 3.9464111328125 625.8189697265625 10.72149658203125 596.14306640625 L 90.88629150390625 245.0147705078125 C 97.6602783203125 215.343994140625 117.5774536132813 190.3729248046875 144.9990844726563 177.1710815429688 L 469.621337890625 20.88427734375 C 483.3279418945313 14.28533935546875 498.1639404296875 10.98583984375 512.9999389648438 10.98583984375 Z" stroke="none" fill="#bcdbd6"/></g></g></g></svg>