<svg xmlns="http://www.w3.org/2000/svg" xmlns:xlink="http://www.w3.org/1999/xlink" width="1808" height="476.5" viewBox="0 0 1808 476.5"><defs><style>.a,.d{fill:none;}.b{opacity:0.6;}.c{clip-path:url(#a);}.d{stroke:#111214;stroke-linecap:round;stroke-width:10px;}.e{clip-path:url(#b);}</style><clipPath id="a"><rect class="a" width="1808" height="381"/></clipPath><clipPath id="b"><rect class="a" width="448" height="1585"/></clipPath></defs><g class="b" transform="translate(-50.5 -1779.5)"><g class="c" transform="translate(50.5 1779.5)"><g transform="translate(-89.5 -1779.5)"><line class="d" x2="1771" y2="2" transform="translate(94.5 1784.5)"/></g><g transform="translate(-89.5 -1694.5)"><line class="d" x2="1771" y2="2" transform="translate(94.5 1784.5)"/></g><g transform="translate(-89.5 -1609.5)"><line class="d" x2="1771" y2="2" transform="translate(94.5 1784.5)"/></g><g transform="translate(-89.5 -1524.5)"><line class="d" x2="1771" y2="2" transform="translate(94.5 1784.5)"/></g><g transform="translate(-89.5 -1439.5)"><line class="d" x2="1771" y2="2" transform="translate(94.5 1784.5)"/></g></g><g class="e" transform="translate(1672 1808) rotate(90)"><g transform="translate(-89.5 -1779.5)"><path class="d" d="M0,0,1773.188.5" transform="translate(94.5 1784.5)"/></g><g transform="translate(-89.5 -1658.5)"><path class="d" d="M0,0,1773.188.5" transform="translate(94.5 1784.5)"/></g><g transform="translate(-89.5 -1537.5)"><path class="d" d="M0,0,1773.188.5" transform="translate(94.5 1784.5)"/></g><g transform="translate(-89.5 -1416.5)"><path class="d" d="M0,0,1773.188.5" transform="translate(94.5 1784.5)"/></g><g transform="translate(-89.5 -1295.5)"><path class="d" d="M0,0,1773.188.5" transform="translate(94.5 1784.5)"/></g><g transform="translate(-89.5 -1174.5)"><path class="d" d="M0,0,1773.188.5" transform="translate(94.5 1784.5)"/></g><g transform="translate(-89.5 -1053.5)"><path class="d" d="M0,0,1773.188.5" transform="translate(94.5 1784.5)"/></g><g transform="translate(-89.5 -932.5)"><path class="d" d="M0,0,1773.188.5" transform="translate(94.5 1784.5)"/></g><g transform="translate(-89.5 -811.5)"><path class="d" d="M0,0,1773.188.5" transform="translate(94.5 1784.5)"/></g><g transform="translate(-89.5 -690.5)"><path class="d" d="M0,0,1773.188.5" transform="translate(94.5 1784.5)"/></g><g transform="translate(-89.5 -569.5)"><path class="d" d="M0,0,1773.188.5" transform="translate(94.5 1784.5)"/></g><g transform="translate(-89.5 -448.5)"><path class="d" d="M0,0,1773.188.5" transform="translate(94.5 1784.5)"/></g><g transform="translate(-89.5 -327.5)"><path class="d" d="M0,0,1773.188.5" transform="translate(94.5 1784.5)"/></g><g transform="translate(-89.5 -206.5)"><path class="d" d="M0,0,1773.188.5" transform="translate(94.5 1784.5)"/></g></g></g></svg>